<svg width="22" height="23" viewBox="0 0 22 23" fill="none" xmlns="http://www.w3.org/2000/svg">
<g clip-path="url(#clip0_537_345)">
<path d="M5.97143 1.60645C4.06582 1.60645 2.51429 3.15798 2.51429 5.06359C2.51429 6.38915 3.26226 7.54802 4.36071 8.12787C1.84808 8.83268 0 13.128 0 15.8636C8.33387e-06 15.9469 0.0331233 16.0269 0.0920615 16.0858C0.151 16.1448 0.230935 16.1779 0.314286 16.1779H6.11875C5.66137 17.0221 5.02857 19.9802 5.02857 21.0064C5.02858 21.0898 5.0617 21.1697 5.12063 21.2287C5.17957 21.2876 5.25951 21.3207 5.34286 21.3207H16.6571C16.7405 21.3207 16.8204 21.2876 16.8794 21.2287C16.9383 21.1697 16.9714 21.0898 16.9714 21.0064C16.9714 19.9802 16.3386 17.0221 15.8813 16.1779H21.6857C21.7691 16.1779 21.849 16.1448 21.9079 16.0858C21.9669 16.0269 22 15.9469 22 15.8636C22 13.128 20.1519 8.83268 17.6393 8.12787C18.7377 7.54802 19.4857 6.38915 19.4857 5.06359C19.4857 3.15798 17.9342 1.60645 16.0286 1.60645C14.123 1.60645 12.5714 3.15798 12.5714 5.06359V5.13234C12.1002 4.89111 11.5646 4.7493 11 4.7493C10.4354 4.7493 9.89985 4.89111 9.42857 5.13234V5.06359C9.42857 3.15798 7.87703 1.60645 5.97143 1.60645ZM5.97143 2.23502C7.53733 2.23502 8.8 3.49769 8.8 5.06359V5.37787C8.79777 5.42864 8.80788 5.47919 8.82946 5.5252C8.20028 6.0342 7.75425 6.75112 7.60179 7.57787C7.53903 7.56542 7.47397 7.57226 7.41518 7.59752C7.09701 7.74087 6.36857 7.89216 5.97143 7.89216C4.40553 7.89216 3.14286 6.62948 3.14286 5.06359C3.14286 3.49769 4.40553 2.23502 5.97143 2.23502ZM16.0286 2.23502C17.5945 2.23502 18.8571 3.49769 18.8571 5.06359C18.8571 6.62948 17.5945 7.89216 16.0286 7.89216C16.0116 7.89216 15.9878 7.8927 15.9696 7.89216C15.5637 7.88006 14.8894 7.73475 14.5848 7.59752C14.526 7.57226 14.461 7.56542 14.3982 7.57787C14.2457 6.75112 13.7997 6.0342 13.1705 5.5252C13.1921 5.47919 13.2022 5.42864 13.2 5.37787V5.06359C13.2 3.49769 14.4627 2.23502 16.0286 2.23502ZM11 5.37787C12.5659 5.37787 13.8286 6.64055 13.8286 8.20645C13.8286 9.77235 12.5659 11.035 11 11.035C9.4341 11.035 8.17143 9.77235 8.17143 8.20645C8.17143 6.64055 9.4341 5.37787 11 5.37787ZM7.54286 8.22609C7.5503 9.54647 8.42038 10.6853 9.51758 11.2609C8.17152 11.6356 6.90297 14.4739 6.11875 15.5886C6.07361 15.5636 6.02302 15.5501 5.97143 15.5493H0.658036C0.822999 12.7441 3.1243 8.52073 5.97143 8.52073C5.9896 8.52073 6.01175 8.52105 6.03036 8.52073C6.03363 8.52078 6.03691 8.52078 6.04018 8.52073C6.51114 8.51136 7.09951 8.39994 7.54286 8.22609ZM14.4571 8.22609C14.8798 8.39185 15.4311 8.49313 15.8911 8.51091C15.8943 8.51103 15.8977 8.5108 15.9009 8.51091C15.9073 8.51441 15.9139 8.51769 15.9205 8.52073C15.93 8.52102 15.9406 8.52052 15.95 8.52073C15.9761 8.524 16.0025 8.524 16.0286 8.52073C18.8757 8.52073 21.177 12.7441 21.342 15.5493H16.0286C15.977 15.5501 15.9264 15.5636 15.8813 15.5886C15.097 14.4739 13.9175 11.6356 12.5714 11.2609C13.6686 10.6853 14.4497 9.54647 14.4571 8.22609ZM11 11.6636C13.8471 11.6636 16.1484 17.887 16.3134 20.6922H5.68661C5.85157 17.887 8.15287 11.6636 11 11.6636Z" fill="#111111" stroke="#111111" stroke-width="0.3"/>
</g>
<defs>
<clipPath id="clip0_537_345">
<rect width="22" height="22" fill="white" transform="translate(0 0.458008)"/>
</clipPath>
</defs>
</svg>
